<?xml version="1.0" encoding="UTF-8"?>
<svg id="_レイヤー_1" xmlns="http://www.w3.org/2000/svg" version="1.1" viewBox="0 0 64 64">
  <!-- Generator: Adobe Illustrator 29.0.1, SVG Export Plug-In . SVG Version: 2.1.0 Build 192)  -->
  <defs>
    <style>
      .st0 {
        fill: #666;
      }
    </style>
  </defs>
  <path class="st0" d="M55.6,7.5h-3.6v4.8c0,2.2-1.8,4-4,4s-4-1.8-4-4v-4.8h-24v4.8c0,2.2-1.8,4-4,4s-4-1.8-4-4v-4.8h-3.6c-2.6,0-4.6,2.1-4.6,4.6v47.2c0,2.6,2.1,4.6,4.6,4.6h47.2c2.6,0,4.6-2.1,4.6-4.6V12.1c0-2.6-2.1-4.6-4.6-4.6ZM57.2,59.4c0,.9-.7,1.6-1.6,1.6H8.4c-.9,0-1.6-.7-1.6-1.6V25.5h50.4v33.9Z"/>
  <path class="st0" d="M16,15c1.5,0,2.7-1.2,2.7-2.7V2.7c0-1.5-1.2-2.7-2.7-2.7s-2.7,1.2-2.7,2.7v9.5c0,1.5,1.2,2.7,2.7,2.7Z"/>
  <path class="st0" d="M48,15c1.5,0,2.7-1.2,2.7-2.7V2.7c0-1.5-1.2-2.7-2.7-2.7s-2.7,1.2-2.7,2.7v9.5c0,1.5,1.2,2.7,2.7,2.7Z"/>
  <path class="st0" d="M28.7,42.8c-3.4,2-5.1,6.8-4.9,10.6,0,.9.2,1.8.5,2.8h15.6c.3-1,.4-2,.5-2.8.2-3.7-1.5-8.5-4.9-10.6,1.8-1.1,3-3.1,3-5.4,0-3.5-2.8-6.4-6.4-6.4s-6.4,2.8-6.4,6.4,1.2,4.3,3,5.4Z"/>
  <path class="st0" d="M38.4,42.4c0,.1-.2.2-.3.4.1.1.3.3.4.4.9,1,1.7,2.2,2.3,3.6.9,2.1,1.4,4.5,1.3,6.7,0,.9-.2,1.8-.4,2.7h8.5c.3-1,.4-2,.5-2.8.2-3.7-1.5-8.5-4.9-10.6,1.8-1.1,3-3.1,3-5.4,0-3.5-2.8-6.4-6.4-6.4s-2.9.5-3.9,1.4c1.1,1.4,1.7,3.2,1.7,5s-.4,2.8-1.1,4c-.2.3-.4.6-.6.9Z"/>
  <path class="st0" d="M13.3,53.3c0,.9.2,1.8.5,2.8h8.5c-.2-.9-.4-1.9-.4-2.7-.1-2.2.3-4.6,1.3-6.7.6-1.4,1.4-2.6,2.3-3.6.1-.1.3-.3.4-.4-.1-.1-.2-.2-.3-.4-.2-.3-.4-.6-.6-.9-.7-1.2-1.1-2.6-1.1-4s.6-3.6,1.7-5c-1.1-.9-2.5-1.4-3.9-1.4-3.5,0-6.4,2.8-6.4,6.4s1.2,4.3,3,5.4c-3.4,2-5.1,6.8-4.9,10.6Z"/>
</svg>