<?xml version="1.0" encoding="UTF-8"?>
<svg id="_レイヤー_1" data-name="レイヤー_1" xmlns="http://www.w3.org/2000/svg" version="1.1" viewBox="0 0 512 119">
  <!-- Generator: Adobe Illustrator 29.0.1, SVG Export Plug-In . SVG Version: 2.1.0 Build 192)  -->
  <g>
    <path d="M209.9,68.9l-14.3-6.2,11.4-25.9h-60.5v-15.5h84.2l-20.8,47.7ZM179.3,79.8c-3.9,10-10.2,19.4-18.6,28.2l-11.2-10.9c7.1-7.4,12.4-15.2,15.6-23.8,2.8-7.4,4.7-16.7,5.7-28.1l15.4,1.5c-1.1,13.3-3.5,24.3-6.9,33.2Z" style="fill: #939393;"/>
    <path d="M313.3,65.7c-4.7,14.4-15,31-25.5,42.4l-11.5-10.5c13.8-15.1,24.9-37.9,27.5-60.8h-40.1v24.6h-15.5V21.2h72.2c-.7,17.6-3.1,32.4-7,44.4Z" style="fill: #939393;"/>
    <path d="M399.1,64.3l-14.5-5.6,6-15.3h-22.8c.3,11.9,2,24.1,5,30.6,3.6,8,10.2,14.4,19.6,19.5l-7.3,13.7c-11.9-6.3-20.5-14.8-25.7-25.3-4.5-9.1-6.7-23.8-7-38.5h-13.4v-15.5h13.7V11h15.5c0,10.3,0,16-.1,16.9h45.1l-14.1,36.5Z" style="fill: #939393;"/>
    <path d="M443.2,95.9l-15.4-2.1,8.5-65.8,15.4,2.1-8.5,65.8ZM491.7,92.1c-8.6,5.3-16.3,8.9-22.9,10.9l-10,2.9V19.1h15.5v64.9c10.3-5.1,19.3-11.3,27-18.6l10.7,11.4c-5.7,5.4-12.5,10.5-20.3,15.3Z" style="fill: #939393;"/>
  </g>
  <g>
    <path d="M78.9,102h-24.3l4.9-8.4c-6.3,3.9-13.7,6.1-21.6,6.1l-10.4,18h78.6l-28.1-48.7c-1.6,6.1-4.6,11.7-8.6,16.3l9.7,16.8Z" style="fill: #ffe69b;"/>
    <path d="M53.7,67.3c1.6-2.7,2.4-5.8,2.4-9.1s-.9-6.5-2.5-9.2l-9.2,9.2,9.2,9.2Z" style="fill: #eba3a3;"/>
    <path d="M101.3,69.2l11.1-11.1-22.8-22.8,22.8-22.8-11.1-11.1-22.8,22.8L55.6,1.4l-11.1,11.1,6.2,6.2c13.1,4.3,23.3,15,27,28.3l.6-.6,22.8,22.8Z" style="fill: #eba3a3;"/>
    <path d="M37.8,20.3C17,20.3,0,37.3,0,58.1s16.9,37.8,37.8,37.8,37.8-16.9,37.8-37.8S58.6,20.3,37.8,20.3h0ZM37.8,80.3c-12.2,0-22.1-9.9-22.1-22.1s9.9-22.1,22.1-22.1,22.1,9.9,22.1,22.1-9.9,22.1-22.1,22.1h0Z" style="fill: #a6e696;"/>
  </g>
</svg>