<?xml version="1.0" encoding="UTF-8"?>
<svg id="_レイヤー_1" xmlns="http://www.w3.org/2000/svg" version="1.1" viewBox="0 0 64 64">
  <!-- Generator: Adobe Illustrator 29.0.1, SVG Export Plug-In . SVG Version: 2.1.0 Build 192)  -->
  <defs>
    <style>
      .st0 {
        fill: #666;
      }
    </style>
  </defs>
  <path class="st0" d="M39.4,18.9c1.6,1,3.5,1.6,5.5,1.6,5.6,0,10.2-4.6,10.2-10.2S50.5.2,44.9.2s-10.2,4.6-10.2,10.1.1,1.8.4,2.7l-6,4.3-9.5,6.8c-1.4-.8-3-1.2-4.8-1.2-5.6,0-10.2,4.6-10.2,10.1s4.6,10.1,10.2,10.1,4.6-.8,6.4-2.3l7.9,5.6,6,4.3c-.2.9-.4,1.8-.4,2.7,0,5.6,4.6,10.2,10.2,10.2s10.2-4.6,10.2-10.2-4.6-10.1-10.2-10.1-3.9.6-5.5,1.6l-8.6-6.1-6-4.2c0-.5.1-1.1.1-1.6,0-1.2-.2-2.4-.6-3.5l6.5-4.6,8.6-6.1ZM44.7,4.6c3.2,0,5.7,2.6,5.7,5.7s-2.6,5.7-5.7,5.7-5.7-2.6-5.7-5.7,2.6-5.7,5.7-5.7ZM14.7,39.2c-3.2,0-5.7-2.6-5.7-5.7s2.6-5.7,5.7-5.7,5.7,2.6,5.7,5.7-2.6,5.7-5.7,5.7ZM44.7,48c3.2,0,5.7,2.6,5.7,5.7s-2.6,5.7-5.7,5.7-5.7-2.6-5.7-5.7,2.6-5.7,5.7-5.7Z"/>
</svg>